<svg id="Layer_1" data-name="Layer 1" xmlns="http://www.w3.org/2000/svg" viewBox="0 0 1022.24 331.32"><defs><style>.cls-1{fill:#5bf586;}.cls-2{fill:#f5c224;}.cls-3{fill:#b9e274;}.cls-4{fill:#7eea70;}.cls-5{fill:#cad54f;}.cls-6{fill:#d8d046;}.cls-7{fill:#5cf27c;}.cls-8{fill:#c3d788;}.cls-9{fill:#aff7c2;}</style></defs><path class="cls-1" d="M-1203.28,343.94a14.24,14.24,0,0,1-1-6.27q0-146.51,0-293c0-3.87.47-7.53,3.78-10.16l.25.19c-3,6.39-2.65,13.27-2.67,20q-.13,71.54-.06,143.07,0,70.53.07,141.07a1.73,1.73,0,0,0,.53,2.16l.14,2Z" transform="translate(1204.33 -25.63)"/><path class="cls-2" d="M-182.09,41.71q0,145.9,0,291.8c0,2.16-.05,4.32-.08,6.48a3.39,3.39,0,0,1-.9,0c0-2-.06-4-.06-6l0-286.25c0-2-.1-4-.15-6Z" transform="translate(1204.33 -25.63)"/><path class="cls-3" d="M-814.46,57.49h239.17c1.16,0,2.32.07,3.49.11,0,.3,0,.59,0,.88-2.16,0-4.33.13-6.49.13q-107.91,0-215.82,0c-7.16,0-14.32-.08-21.47-.13Z" transform="translate(1204.33 -25.63)"/><path class="cls-4" d="M-856.65,356.93l-216.82,0c-1.33,0-2.65-.12-4-.18v-.64c2.16-.06,4.31-.18,6.47-.18q103.44,0,206.89,0c2.49,0,5-.23,7.46-.35Z" transform="translate(1204.33 -25.63)"/><path class="cls-3" d="M-582.8,325.05q-85.74.06-171.47.11c-13.79,0-27.58-.05-41.37-.07,0-.32,0-.64,0-1q61.95,0,123.89-.09,44.47,0,88.93.12C-582.81,324.46-582.8,324.76-582.8,325.05Z" transform="translate(1204.33 -25.63)"/><path class="cls-5" d="M-528.79,25.65l187.31,0c2.16,0,4.33.1,6.49.16v.68c-2.16.06-4.32.16-6.48.16l-186.25,0Z" transform="translate(1204.33 -25.63)"/><path class="cls-6" d="M-347.94,356.77a12.45,12.45,0,0,1-1.48.18l-180.26-.08c.39-.88,1.25-.79,2-1l173.28,0c2.16,0,4.32.13,6.48.19Z" transform="translate(1204.33 -25.63)"/><path class="cls-7" d="M-1187.33,25.78l171.86.07v.69l-171.86.14Z" transform="translate(1204.33 -25.63)"/><path class="cls-4" d="M-1015.47,26.54v-.69c14.94-.06,29.88-.16,44.82-.16q57,0,114.06,0c0,.46,0,.92,0,1.38-2.48-.14-5-.39-7.45-.4q-53.81,0-107.62,0C-986.25,26.7-1000.86,26.6-1015.47,26.54Z" transform="translate(1204.33 -25.63)"/><path class="cls-2" d="M-347.94,356.77v-.64l148.85-.13a3.62,3.62,0,0,1,0,.87Z" transform="translate(1204.33 -25.63)"/><path class="cls-6" d="M-335,26.53v-.68l98.1-.19,38.85,0-.12,1.3c-8-.07-16-.17-24-.19Z" transform="translate(1204.33 -25.63)"/><path class="cls-7" d="M-1077.45,356.13v.64l-111.85.14c.3-1.05,1.25-.88,2-1.08,4.82.05,9.65.12,14.48.13Z" transform="translate(1204.33 -25.63)"/><path class="cls-8" d="M-582.8,325.05c0-.29,0-.59,0-.89,6.88,0,14.21-1.84,20.22,2.8,9.7,7.49,18.07,16.42,26.06,25.7l-.39.4c-7.73-5.49-13.76-12.8-20.33-19.48-4.52-4.59-9.49-7.62-15.83-8.3C-576.3,324.93-579.59,326.81-582.8,325.05Z" transform="translate(1204.33 -25.63)"/><path class="cls-8" d="M-528.79,25.65l1.07,1.08c-5.67,1.45-9.95,4.9-13.89,9.09-5.23,5.56-10.7,10.91-16.2,16.21-3.88,3.75-8.21,6.76-14,6.46,0-.29,0-.58,0-.88,10.25-1.93,16-10.11,22.87-16.62,4.1-3.86,8-8,12.13-11.76A13,13,0,0,1-528.79,25.65Z" transform="translate(1204.33 -25.63)"/><path class="cls-8" d="M-856.57,27.12c0-.47,0-.93,0-1.39A14,14,0,0,1-849,29.24c8.26,7.64,16.47,15.35,23.75,24l-.48.61c-7.16-5.13-12.63-12.05-18.94-18.07C-848.3,32.31-851.64,28.67-856.57,27.12Z" transform="translate(1204.33 -25.63)"/><path class="cls-8" d="M-825.26,329.44c-7.21,8.6-15.52,16.11-23.56,23.88a7.23,7.23,0,0,1-4.42,2l-.58-.7c3-2.37,6.08-4.57,8.84-7.15,6.5-6.12,12.83-12.42,19.23-18.64C-825.58,329.05-825.42,329.24-825.26,329.44Z" transform="translate(1204.33 -25.63)"/><path class="cls-8" d="M-795.63,324.13c0,.32,0,.64,0,1-4,1.42-8.21.54-12.31.62-4.83.1-9.63,0-14.24,1.74l-.63-.71a11.66,11.66,0,0,1,6.84-2.61C-809.2,323.9-802.42,324.1-795.63,324.13Z" transform="translate(1204.33 -25.63)"/><path class="cls-9" d="M-1187.29,355.83c-.76.2-1.71,0-2,1.08-7.18-1.61-12.13-5.63-14-13l1-1C-1199.53,349.87-1194.38,354-1187.29,355.83Z" transform="translate(1204.33 -25.63)"/><path class="cls-1" d="M-1187.33,25.78v.9a24.63,24.63,0,0,0-13,8l-.25-.19C-1198.12,28.6-1193.25,26.39-1187.33,25.78Z" transform="translate(1204.33 -25.63)"/><path class="cls-8" d="M-814.46,57.49l-1.14,1a14.68,14.68,0,0,1-10.16-4.7l.48-.61Z" transform="translate(1204.33 -25.63)"/><path class="cls-8" d="M-527.69,355.91c-.74.17-1.6.08-2,1-2.76-.62-5.36-1.52-7.24-3.81l.38-.4Z" transform="translate(1204.33 -25.63)"/><path class="cls-6" d="M-183.08,340a3.39,3.39,0,0,0,.9,0,9.89,9.89,0,0,1-2.8,8.1l-.69-.63Z" transform="translate(1204.33 -25.63)"/><path class="cls-8" d="M-198.16,26.93l.12-1.3a10.51,10.51,0,0,1,7.15,2.82l-.78.87Z" transform="translate(1204.33 -25.63)"/><path class="cls-6" d="M-199.08,356.87a3.62,3.62,0,0,0,0-.87l7.43-2.65.72.78A10.07,10.07,0,0,1-199.08,356.87Z" transform="translate(1204.33 -25.63)"/><path class="cls-8" d="M-182.09,41.71l-1.17.06q-1.23-3.29-2.45-6.55l.85-.77A10.24,10.24,0,0,1-182.09,41.71Z" transform="translate(1204.33 -25.63)"/><path class="cls-8" d="M-187.71,31.3a4.14,4.14,0,0,1,2.85,3.15l-.85.77-2.58-3.34Z" transform="translate(1204.33 -25.63)"/><path class="cls-6" d="M-185,348.09a4.84,4.84,0,0,1-2.65,3.38,7.22,7.22,0,0,0-.6-.64l2.55-3.37Z" transform="translate(1204.33 -25.63)"/><path class="cls-8" d="M-822.19,327.45a4.44,4.44,0,0,1-3.08,2,6.57,6.57,0,0,0-.48-.57,4.52,4.52,0,0,1,2.93-2.13Z" transform="translate(1204.33 -25.63)"/><path class="cls-8" d="M-856.65,356.93c0-.44,0-.88,0-1.32l2.81-.95.58.7A4.56,4.56,0,0,1-856.65,356.93Z" transform="translate(1204.33 -25.63)"/><path class="cls-8" d="M-190.89,28.45a2.61,2.61,0,0,1,2.18,1.82c-.21.21-.41.43-.6.65l-2.36-1.6Z" transform="translate(1204.33 -25.63)"/><path class="cls-6" d="M-188.6,352.45a3.08,3.08,0,0,1-2.34,1.68l-.72-.78,2.38-1.6A7.49,7.49,0,0,0-188.6,352.45Z" transform="translate(1204.33 -25.63)"/><path class="cls-8" d="M-188.71,30.27c.33.35.66.69,1,1l-.58.58-1-1C-189.12,30.7-188.92,30.48-188.71,30.27Z" transform="translate(1204.33 -25.63)"/><path class="cls-6" d="M-187.63,351.47l-1,1a7.49,7.49,0,0,1-.68-.7l1.05-.92A7.22,7.22,0,0,1-187.63,351.47Z" transform="translate(1204.33 -25.63)"/><path class="cls-9" d="M-1203,338.86a2.18,2.18,0,0,1,.53,2.16A1.73,1.73,0,0,1-1203,338.86Z" transform="translate(1204.33 -25.63)"/></svg>